<?xml version="1.0" standalone="no"?>
<!DOCTYPE svg PUBLIC "-//W3C//DTD SVG 20010904//EN"
 "http://www.w3.org/TR/2001/REC-SVG-20010904/DTD/svg10.dtd">
<svg version="1.0" xmlns="http://www.w3.org/2000/svg"
 width="340.000000pt" height="280.000000pt" viewBox="0 0 340.000000 280.000000"
 preserveAspectRatio="xMidYMid meet">

<g transform="translate(0.000000,280.000000) scale(0.100000,-0.100000)"
fill="#000000" stroke="none">
<path d="M3025 2721 c-73 -19 -142 -79 -171 -147 -18 -43 -18 -135 0 -178 38
-90 123 -147 220 -147 96 0 167 39 214 120 23 38 27 58 27 116 -1 102 -44 173
-135 220 -34 18 -116 26 -155 16z m133 -37 c153 -64 178 -270 45 -370 -141
-107 -339 -3 -337 177 2 150 155 251 292 193z"/>
<path d="M2980 2490 l0 -131 28 3 c24 3 27 7 30 46 3 33 7 42 22 42 11 0 31
-18 47 -42 20 -30 37 -44 56 -46 33 -4 34 9 3 54 l-24 35 24 24 c30 30 32 83
5 116 -17 21 -29 24 -105 28 l-86 3 0 -132z m150 59 c16 -30 -4 -49 -51 -49
-38 0 -39 1 -39 35 0 34 1 35 40 35 29 0 42 -5 50 -21z"/>
<path d="M270 2212 l0 -127 570 -570 570 -570 390 390 390 390 0 -307 c0 -339
-6 -392 -61 -523 -97 -234 -325 -419 -573 -464 -82 -15 -228 -13 -308 4 -300
63 -540 304 -603 605 -11 50 -15 133 -15 283 l0 212 -180 180 -181 180 3 -445
4 -445 27 -98 c32 -115 97 -259 157 -348 56 -81 186 -216 270 -280 88 -68 263
-152 385 -185 93 -26 113 -28 295 -28 182 0 202 2 295 28 261 72 502 245 653
467 63 95 92 153 131 263 59 167 61 196 61 887 l0 629 -127 0 -128 0 -442
-442 -443 -443 -262 263 -263 262 430 0 430 0 180 180 180 180 -918 0 -917 0
0 -128z"/>
</g>
</svg>
