<?xml version="1.0" encoding="UTF-8" standalone="no"?>
<svg
   version="1.1"
   width="3600pt"
   height="1728pt"
   id="svg13"
   viewBox="0 0 3600 1728"
   sodipodi:docname="logo.cdr"
   xmlns:inkscape="http://www.inkscape.org/namespaces/inkscape"
   xmlns:sodipodi="http://sodipodi.sourceforge.net/DTD/sodipodi-0.dtd"
   xmlns="http://www.w3.org/2000/svg"
   xmlns:svg="http://www.w3.org/2000/svg">
  <defs
     id="defs17" />
  <sodipodi:namedview
     id="namedview15"
     pagecolor="#ffffff"
     bordercolor="#000000"
     borderopacity="0.25"
     inkscape:showpageshadow="2"
     inkscape:pageopacity="0.0"
     inkscape:pagecheckerboard="0"
     inkscape:deskcolor="#d1d1d1"
     inkscape:document-units="pt" />
  <g
     id="Layer1000">
    <path
       d="m 1997.5845,542.1059 h -44.4903 l -150.8112,150.8034 -87.8785,-87.8785 h 29.4428 116.8635 l 62.9269,-62.9249 h -242.7153 -73.941 v 10.348 l 0.01,-0.008 v 34.1423 l 195.2937,195.3016 132.3884,-132.3825 v 29.4428 58.4494 c 0,73.0038 -59.3905,132.3746 -132.3943,132.3746 -72.9842,0 -132.3688,-59.3708 -132.3688,-132.3746 v -58.4278 l -62.9269,-62.9269 v 121.3547 c 0,52.1624 20.3227,101.199 57.1959,138.1056 36.8988,36.8732 85.9374,57.1959 138.0998,57.1959 52.1683,0 101.2265,-20.3227 138.0997,-57.1959 36.8988,-36.9066 57.1999,-85.9432 57.1999,-138.1056 V 616.0449 586.5942 l 0.01,-0.006 z"
       style="fill:#00899b;fill-rule:evenodd"
       id="path2" />
    <path
       d="m 1182.6328,1114.8688 c -35.8456,0 -54.0269,-13.5722 -54.0269,-40.339 v -44.9048 h 25.3053 v 42.5687 c 0,14.5622 8.053,20.2384 28.7216,20.2384 20.6686,0 28.7296,-5.6762 28.7296,-20.2384 v -42.5687 h 25.2973 v 44.9048 c 0,26.7668 -18.1733,40.339 -54.0269,40.339 z m 1226.6417,-2.6545 v -60.1526 h -36.8182 v -22.4367 h 98.9378 v 22.4367 h -36.8223 v 60.1526 z m -108.4055,2.1258 c -20.2931,0 -39.7554,-2.8762 -48.4962,-5.7172 l -2.8762,-0.9429 v -22.9415 l 5.497,1.8643 c 5.9669,2.0159 19.8492,5.3988 45.7715,5.3988 34.427,0 37.1088,-7.0414 37.1088,-9.1964 0.028,-0.028 -0.9509,-1.0335 -5.3851,-1.0335 h -58.0409 c -25.4857,0 -28.2441,-15.8235 -28.2441,-22.6292 0,-14.4307 10.0708,-31.6414 58.0622,-31.6414 19.3917,0 38.3822,2.8782 47.123,5.7191 l 2.8762,0.9433 v 22.6156 l -5.503,-1.8587 c -7.8529,-2.6544 -25.2834,-5.509 -45.0246,-5.509 -21.2227,0 -32.3327,4.7329 -32.3327,9.4127 0,0.2062 0.027,0.2771 0.027,0.2771 0.01,0 0.943,0.9706 5.4618,0.9706 h 56.1272 c 18.7491,0 29.942,8.4206 29.942,22.517 0,11.8589 -8.0673,31.7513 -62.0942,31.7513 z m -106.6311,-36.441 -13.6408,-25.8393 h -7.3951 l -13.6332,25.8393 z m 18.1791,34.3152 -6.2516,-11.8804 h -58.532 l -6.2516,11.8804 h -27.7866 l 43.6594,-82.5893 h 39.2918 l 43.6572,82.5893 z m -197.7083,0 v -82.5893 h 25.2973 v 60.1546 h 69.3869 v 22.4347 z m -99.3543,-39.9869 c 4.9747,0.1728 10.2773,0.2551 16.093,0.2551 37.1638,0 44.9616,-6.446 44.9616,-11.8509 0,-6.8136 -12.6289,-10.2655 -37.5313,-10.2655 -7.4716,0 -15.5545,0.3183 -23.5233,0.6662 z m -25.3049,39.9911 v -82.3206 l 3.8802,-0.2691 c 17.4464,-1.1707 30.2542,-1.7051 41.551,-1.7051 28.4312,0 66.2336,3.383 66.2336,32.6037 0,31.0225 -41.3782,34.6119 -72.4909,34.6119 -4.5483,0 -9.1221,-0.1235 -13.869,-0.2827 v 17.3619 z m -78.9392,0 v -21.7412 l -46.7202,-60.8481 h 28.4996 l 31.1759,39.4097 30.5449,-39.4097 h 28.5351 l -46.73,60.75 v 21.8393 z m -120.2055,0 v -82.5893 h 25.3053 v 60.1546 h 69.3868 v 22.4347 z m -72.436,-62.8048 c -29.9692,0 -35.8338,7.8881 -35.8338,21.5153 0,13.6189 5.8646,21.5054 35.8338,21.5054 29.9693,0 35.8339,-7.8865 35.8339,-21.5054 0,-13.6272 -5.8646,-21.5153 -35.8339,-21.5153 z m 0,65.4574 c -42.2779,0 -61.1388,-13.5506 -61.1388,-43.9421 0,-30.3998 18.8609,-43.9501 61.1388,-43.9501 42.2859,0 61.1373,13.5503 61.1373,43.9501 0,30.3915 -18.8514,43.9421 -61.1373,43.9421 z m -157.8389,-42.6395 c 4.9766,0.1728 10.2852,0.2551 16.1006,0.2551 37.1581,0 44.9541,-6.446 44.9541,-11.8509 0,-6.8136 -12.6271,-10.2655 -37.5295,-10.2655 -7.4716,0 -15.5545,0.3183 -23.5252,0.6662 z m -25.3049,39.9911 v -82.3206 l 3.8821,-0.2691 c 17.4445,-1.1707 30.2599,-1.7051 41.551,-1.7051 28.4309,0 66.2317,3.383 66.2317,32.6037 0,31.0225 -41.3706,34.6119 -72.4912,34.6119 -4.5461,0 -9.1199,-0.1235 -13.8687,-0.2827 v 17.3619 z m -148.2574,0 -43.6572,-82.5893 h 27.8908 l 31.7157,60.1546 h 7.4992 l 31.7161,-60.1546 h 27.8828 l -43.6514,82.5893 z"
       style="fill:#1b1918;fill-rule:evenodd"
       id="path4" />
    <path
       d="m 1237.1283,1213.7377 c 0.4008,0.6837 0.7309,1.3674 1.0374,2.0982 0.2829,0.7309 0.5658,1.4853 0.8487,2.2398 0.2593,-0.778 0.5658,-1.5325 0.8723,-2.2398 0.3065,-0.7073 0.6366,-1.4145 1.0374,-2.1218 l 20.1577,-36.6375 c 0.3536,-0.6365 0.7308,-1.0373 1.1316,-1.1788 0.4008,-0.1415 0.9431,-0.2122 1.6739,-0.2122 h 5.9412 v 59.6007 h -7.0728 v -43.781 c 0,-0.5894 0.024,-1.2024 0.047,-1.8861 0.024,-0.6602 0.071,-1.3439 0.1179,-2.0276 l -20.417,37.2505 c -0.6837,1.2495 -1.6503,1.8861 -2.8999,1.8861 h -1.1788 c -1.2495,0 -2.2162,-0.6366 -2.8999,-1.8861 l -20.8885,-37.3684 c 0.071,0.7073 0.1414,1.4146 0.1886,2.0983 0.047,0.7073 0.071,1.3439 0.071,1.9333 v 43.781 h -7.0728 v -59.6007 h 5.9412 c 0.7308,0 1.2731,0.071 1.6739,0.2122 0.3772,0.1415 0.7544,0.5423 1.1081,1.1788 l 20.582,36.6611 z m 47.7183,21.5486 v -35.8123 l -4.6445,-0.5422 c -0.5894,-0.1179 -1.0845,-0.3301 -1.4382,-0.6366 -0.3772,-0.3065 -0.5658,-0.7308 -0.5658,-1.2731 v -3.0413 h 6.6485 v -4.0551 c 0,-2.4284 0.3536,-4.5738 1.0374,-6.4364 0.6837,-1.8625 1.6503,-3.4421 2.8998,-4.7388 1.2496,-1.2967 2.782,-2.2633 4.5502,-2.947 1.7683,-0.6601 3.7722,-0.9902 5.9884,-0.9902 1.8861,0 3.6307,0.2829 5.2339,0.8487 l -0.165,3.7015 c -0.024,0.5423 -0.2593,0.8723 -0.7073,0.9902 -0.4479,0.1179 -1.0609,0.165 -1.8625,0.165 h -1.2967 c -1.2731,0 -2.4284,0.1651 -3.4657,0.4951 -1.0374,0.3301 -1.9333,0.8724 -2.6877,1.6268 -0.7544,0.7544 -1.3203,1.7446 -1.7211,2.947 -0.4008,1.226 -0.613,2.7349 -0.613,4.5267 v 3.8665 h 12.189 v 5.3754 h -11.9296 v 35.9301 z m 40.5511,-42.838 c 1.8154,0 3.5364,0.1886 5.1396,0.5894 1.5796,0.4008 3.0414,1.0138 4.3381,1.7918 h 11.4344 v 2.7349 c 0,0.9194 -0.5894,1.4853 -1.7446,1.7446 l -4.786,0.6601 c 0.9431,1.8154 1.4146,3.8194 1.4146,6.0355 0,2.0512 -0.4008,3.9137 -1.1788,5.5876 -0.778,1.6739 -1.8861,3.1121 -3.2771,4.3145 -1.391,1.2024 -3.0649,2.0982 -4.9982,2.7348 -1.9332,0.6366 -4.0551,0.9666 -6.342,0.9666 -1.9568,0 -3.8193,-0.2357 -5.564,-0.7073 -0.8959,0.5423 -1.5796,1.1317 -2.0275,1.7683 -0.448,0.6365 -0.6837,1.2731 -0.6837,1.8861 0,1.0137 0.4008,1.7682 1.2023,2.2633 0.8016,0.5187 1.8626,0.8959 3.2064,1.1081 1.3439,0.2121 2.8527,0.3536 4.5502,0.4008 1.6739,0.071 3.395,0.165 5.1632,0.2829 1.7682,0.1179 3.4893,0.33 5.1868,0.6365 1.6739,0.3065 3.1828,0.8252 4.5266,1.5089 1.3203,0.6837 2.3812,1.6503 3.2064,2.8527 0.8016,1.226 1.2024,2.8056 1.2024,4.7624 0,1.8154 -0.448,3.56 -1.3439,5.2575 -0.9194,1.6739 -2.2161,3.1828 -3.89,4.5031 -1.6975,1.2967 -3.7722,2.3576 -6.2006,3.1592 -2.4519,0.778 -5.2103,1.1788 -8.2753,1.1788 -3.0884,0 -5.7761,-0.3065 -8.0866,-0.9195 -2.334,-0.6129 -4.2437,-1.4381 -5.7762,-2.4519 -1.5324,-1.0138 -2.6641,-2.1926 -3.4185,-3.5364 -0.778,-1.3439 -1.1553,-2.7584 -1.1553,-4.2437 0,-2.0747 0.6602,-3.843 1.9804,-5.3047 1.3203,-1.4381 3.1357,-2.5934 5.4226,-3.4657 -1.2024,-0.5423 -2.1455,-1.2967 -2.8527,-2.2397 -0.7073,-0.9195 -1.061,-2.1691 -1.061,-3.7015 0,-0.613 0.1179,-1.2495 0.3537,-1.9097 0.2121,-0.6365 0.5658,-1.2967 1.0137,-1.9332 0.448,-0.6366 1.0138,-1.226 1.674,-1.8154 0.6601,-0.5894 1.4381,-1.0845 2.334,-1.5325 -2.0747,-1.1788 -3.7015,-2.7348 -4.8803,-4.6681 -1.1788,-1.9096 -1.7682,-4.1729 -1.7682,-6.7428 0,-2.0511 0.4008,-3.9136 1.1788,-5.5875 0.778,-1.6739 1.8861,-3.1121 3.3007,-4.2909 1.4146,-1.1788 3.112,-2.0983 5.0689,-2.7348 1.9568,-0.6366 4.0787,-0.9431 6.4127,-0.9431 z m 13.132,45.1249 c 0,-1.0609 -0.2829,-1.9097 -0.8723,-2.5462 -0.5895,-0.6366 -1.3675,-1.1081 -2.3577,-1.4617 -1.0138,-0.3537 -2.1454,-0.613 -3.4421,-0.7781 -1.2967,-0.165 -2.6877,-0.2829 -4.1258,-0.3536 -1.4382,-0.071 -2.9235,-0.1415 -4.4088,-0.2358 -1.4853,-0.071 -2.9234,-0.2357 -4.2909,-0.4479 -1.5796,0.7544 -2.8527,1.6739 -3.8429,2.7348 -0.9902,1.0845 -1.4853,2.3812 -1.4853,3.8901 0,0.9431 0.2358,1.8154 0.7309,2.6405 0.4951,0.8252 1.2259,1.5325 2.2397,2.1219 0.9902,0.5894 2.2397,1.0609 3.7486,1.4146 1.5089,0.3536 3.3007,0.5187 5.3518,0.5187 2.004,0 3.7958,-0.1886 5.3754,-0.5423 1.5796,-0.3536 2.8999,-0.8723 4.008,-1.5324 1.0845,-0.6838 1.9096,-1.4618 2.4991,-2.3812 0.5894,-0.9195 0.8723,-1.9333 0.8723,-3.0414 z m -13.132,-22.8689 c 1.4853,0 2.8292,-0.2122 3.9844,-0.6366 1.1552,-0.4008 2.0983,-0.9902 2.8763,-1.7446 0.778,-0.7309 1.3438,-1.6268 1.7446,-2.6877 0.4008,-1.0374 0.5894,-2.169 0.5894,-3.4186 0,-2.5698 -0.778,-4.6209 -2.334,-6.1534 -1.5796,-1.5324 -3.8665,-2.2869 -6.8607,-2.2869 -2.9706,0 -5.2339,0.7545 -6.7899,2.2869 -1.5797,1.5325 -2.3577,3.5836 -2.3577,6.1534 0,1.2496 0.2122,2.3812 0.613,3.4186 0.4008,1.0609 0.9902,1.9568 1.7682,2.6877 0.778,0.7544 1.7211,1.3438 2.8763,1.7446 1.1317,0.4244 2.4284,0.6366 3.8901,0.6366 z m 25.9103,16.0082 c 0,-0.7308 0.1414,-1.4145 0.4008,-2.0511 0.2593,-0.6366 0.6365,-1.1788 1.0845,-1.6503 0.4479,-0.4716 1.0138,-0.8488 1.6503,-1.1317 0.6366,-0.2593 1.2967,-0.4008 2.0276,-0.4008 0.7308,0 1.4146,0.1415 2.0511,0.4008 0.6366,0.2829 1.1788,0.6601 1.6503,1.1317 0.4716,0.4715 0.8488,1.0137 1.1081,1.6503 0.2594,0.6366 0.3773,1.3203 0.3773,2.0511 0,0.7545 -0.1179,1.4382 -0.3773,2.0512 -0.2593,0.6365 -0.6365,1.1788 -1.1081,1.6503 -0.4715,0.4715 -1.0137,0.8487 -1.6503,1.1081 -0.6365,0.2593 -1.3203,0.3772 -2.0511,0.3772 -0.7309,0 -1.391,-0.1179 -2.0276,-0.3772 -0.6365,-0.2594 -1.2024,-0.6366 -1.6503,-1.1081 -0.448,-0.4715 -0.8252,-1.0138 -1.0845,-1.6503 -0.2594,-0.613 -0.4008,-1.2967 -0.4008,-2.0512 z m 67.0508,4.5738 h -3.2771 c -0.7309,0 -1.2967,-0.1179 -1.7447,-0.33 -0.4479,-0.2122 -0.7544,-0.6838 -0.8958,-1.4146 l -0.8252,-3.9137 c -1.1081,1.0138 -2.169,1.9097 -3.23,2.6877 -1.0609,0.778 -2.169,1.4382 -3.3242,1.9804 -1.1788,0.5423 -2.4284,0.9666 -3.7251,1.2496 -1.3202,0.2593 -2.7819,0.4008 -4.4087,0.4008 -1.6268,0 -3.1592,-0.2358 -4.5738,-0.6838 -1.4381,-0.4479 -2.6641,-1.1316 -3.725,-2.0511 -1.061,-0.9195 -1.8861,-2.0747 -2.5227,-3.4893 -0.6366,-1.391 -0.943,-3.0413 -0.943,-4.951 0,-1.6739 0.4715,-3.2771 1.391,-4.8095 0.9194,-1.5325 2.3812,-2.8999 4.4323,-4.1023 2.0275,-1.2024 4.6917,-2.169 7.9923,-2.947 3.3007,-0.7545 7.3322,-1.1788 12.0946,-1.2967 v -3.2771 c 0,-3.2771 -0.7073,-5.7526 -2.0983,-7.4265 -1.391,-1.6739 -3.4657,-2.5227 -6.2241,-2.5227 -1.7918,0 -3.3007,0.2358 -4.5266,0.6837 -1.2496,0.4716 -2.3105,0.9902 -3.2064,1.5561 -0.9195,0.5658 -1.6975,1.0845 -2.334,1.5324 -0.6602,0.448 -1.2967,0.6837 -1.9333,0.6837 -0.4951,0 -0.943,-0.1414 -1.3202,-0.4008 -0.3773,-0.2593 -0.6838,-0.5658 -0.8959,-0.9666 l -1.3203,-2.3812 c 2.334,-2.2397 4.8331,-3.9136 7.5208,-5.0217 2.6877,-1.1081 5.6583,-1.6739 8.9354,-1.6739 2.3576,0 4.4559,0.3772 6.2948,1.1552 1.8154,0.778 3.3714,1.8625 4.621,3.2535 1.2495,1.391 2.1926,3.0885 2.8291,5.0453 0.6366,1.9569 0.9431,4.1259 0.9431,6.4835 z m -19.2146,-4.5266 c 1.2967,0 2.499,-0.1415 3.5835,-0.4008 1.061,-0.2593 2.0748,-0.6366 3.0414,-1.1317 0.9666,-0.4951 1.8861,-1.0845 2.7584,-1.7682 0.8723,-0.6837 1.7211,-1.4853 2.5462,-2.3576 v -8.7704 c -3.4185,0.1179 -6.2948,0.3773 -8.676,0.8016 -2.3812,0.4244 -4.338,0.9902 -5.8234,1.6739 -1.5088,0.7073 -2.5933,1.5325 -3.277,2.4755 -0.6838,0.9431 -1.0138,2.004 -1.0138,3.1593 0,1.108 0.1886,2.0511 0.5422,2.8527 0.3537,0.8016 0.8488,1.4617 1.4618,1.9804 0.5894,0.5187 1.3202,0.8959 2.1454,1.1316 0.8252,0.2358 1.7446,0.3537 2.7113,0.3537 z m 38.6886,-56.7244 v 61.251 h -7.403 v -61.251 z m 21.2893,0 v 61.251 h -7.4029 v -61.251 z m 41.8714,61.9112 c -3.3243,0 -5.8941,-0.9195 -7.6623,-2.782 -1.7918,-1.8626 -2.6877,-4.5267 -2.6877,-8.016 v -25.7923 h -5.0689 c -0.4479,0 -0.8252,-0.1415 -1.1316,-0.4008 -0.3065,-0.2594 -0.448,-0.6838 -0.448,-1.226 v -2.947 l 6.8843,-0.8724 1.721,-13.014 c 0.047,-0.4244 0.2358,-0.7781 0.5423,-1.0374 0.3065,-0.2593 0.6837,-0.3772 1.1552,-0.3772 h 3.7486 v 14.4994 h 12.0475 v 5.3754 h -12.0475 v 25.2737 c 0,1.7682 0.4244,3.0885 1.2967,3.9608 0.8488,0.8723 1.9569,1.2967 3.3243,1.2967 0.778,0 1.4381,-0.1179 2.004,-0.3301 0.5658,-0.2122 1.0609,-0.4244 1.4853,-0.6837 0.4008,-0.2593 0.7544,-0.4715 1.0609,-0.6837 0.2829,-0.2122 0.5422,-0.3065 0.7544,-0.3065 0.4008,0 0.7309,0.2358 1.0374,0.7073 l 2.169,3.5364 c -1.2731,1.2024 -2.8056,2.1219 -4.5974,2.8056 -1.8153,0.6837 -3.6779,1.0138 -5.5875,1.0138 z m 30.6019,11.7645 c -0.2357,0.5658 -0.5422,1.0138 -0.9195,1.3438 -0.3772,0.3301 -0.943,0.4951 -1.721,0.4951 h -5.4933 l 7.6859,-16.7155 -17.3757,-39.6788 h 6.3891 c 0.6366,0 1.1553,0.165 1.5089,0.4715 0.3537,0.3301 0.613,0.6837 0.778,1.061 l 11.2695,26.5468 c 0.2593,0.613 0.4715,1.226 0.6601,1.8154 0.165,0.6129 0.3301,1.2495 0.4715,1.8861 0.1886,-0.6366 0.3773,-1.2732 0.5894,-1.8861 0.1887,-0.5894 0.4008,-1.226 0.6602,-1.8626 l 10.9393,-26.4996 c 0.1651,-0.448 0.448,-0.8016 0.8488,-1.1081 0.4008,-0.2829 0.8487,-0.4244 1.3203,-0.4244 h 5.894 z m 30.2483,1.8389 v -56.3943 h 4.4088 c 1.0609,0 1.721,0.5187 1.9804,1.5325 l 0.6365,4.9981 c 1.7918,-2.1926 3.843,-3.9372 6.177,-5.2811 2.3105,-1.3438 4.9746,-2.0039 7.9923,-2.0039 2.4284,0 4.621,0.4715 6.5778,1.391 1.9568,0.943 3.6308,2.3104 5.0218,4.1258 1.391,1.8154 2.4519,4.0787 3.2063,6.7664 0.7545,2.6877 1.1317,5.7762 1.1317,9.2654 0,3.1121 -0.4244,6.012 -1.2496,8.6761 -0.8251,2.6641 -2.0275,4.9746 -3.5835,6.9314 -1.5561,1.9568 -3.4658,3.5129 -5.7055,4.6209 -2.2633,1.1317 -4.8095,1.6975 -7.6387,1.6975 -2.617,0 -4.8331,-0.4243 -6.6721,-1.2967 -1.8625,-0.8723 -3.4892,-2.0747 -4.8802,-3.6543 v 18.6252 z m 18.7431,-51.1604 c -2.4048,0 -4.503,0.5659 -6.3184,1.6739 -1.8154,1.1081 -3.4893,2.6877 -5.0217,4.6917 v 20.3934 c 1.3438,1.8154 2.8291,3.1121 4.4559,3.843 1.6267,0.7544 3.4185,1.1316 5.4225,1.1316 3.9136,0 6.9314,-1.391 9.0297,-4.1965 2.0983,-2.8056 3.1592,-6.79 3.1592,-11.9768 0,-2.7584 -0.2358,-5.116 -0.7309,-7.0728 -0.4951,-1.9569 -1.1788,-3.5836 -2.0982,-4.8332 -0.9195,-1.2495 -2.0276,-2.1925 -3.3479,-2.782 -1.3438,-0.5894 -2.8527,-0.8723 -4.5502,-0.8723 z m 43.8282,-5.894 c 2.5227,0 4.8332,0.4243 6.9786,1.2731 2.1454,0.8487 3.9844,2.0747 5.5404,3.6543 1.556,1.5796 2.782,3.56 3.6543,5.8941 0.8723,2.334 1.2967,5.0217 1.2967,8.0159 0,1.1552 -0.1179,1.9332 -0.3772,2.3104 -0.2593,0.4008 -0.7309,0.5895 -1.4146,0.5895 h -28.0321 c 0.071,2.6641 0.4244,4.9981 1.0845,6.9549 0.6601,1.9569 1.5796,3.6072 2.7348,4.9275 1.1553,1.3202 2.5463,2.3104 4.173,2.947 1.6032,0.6601 3.395,0.9902 5.399,0.9902 1.8625,0 3.4657,-0.2122 4.8095,-0.6601 1.3439,-0.4244 2.4991,-0.8959 3.4657,-1.391 0.9667,-0.4951 1.7918,-0.9431 2.452,-1.391 0.6365,-0.4244 1.2024,-0.6366 1.6739,-0.6366 0.5894,0 1.0609,0.2358 1.4146,0.7073 l 2.0747,2.7113 c -0.9195,1.108 -2.004,2.0511 -3.2771,2.8763 -1.2967,0.8251 -2.6641,1.4853 -4.1023,2.0039 -1.4617,0.5423 -2.9706,0.9431 -4.5031,1.2024 -1.556,0.2594 -3.112,0.4008 -4.6445,0.4008 -2.8998,0 -5.5875,-0.4951 -8.0395,-1.4853 -2.4519,-0.9902 -4.5738,-2.4283 -6.342,-4.338 -1.7918,-1.8861 -3.1828,-4.2437 -4.173,-7.0493 -1.0137,-2.8056 -1.5088,-6.0119 -1.5088,-9.6427 0,-2.947 0.4479,-5.6818 1.3438,-8.2281 0.8959,-2.5462 2.1926,-4.7624 3.8901,-6.6249 1.6739,-1.8625 3.7486,-3.3478 6.2005,-4.4087 2.4284,-1.061 5.1868,-1.6032 8.2281,-1.6032 z m 0.1651,5.4461 c -3.5836,0 -6.3892,1.0373 -8.4403,3.0885 -2.0512,2.0747 -3.3243,4.951 -3.8194,8.6053 h 22.8925 c 0,-1.7211 -0.2357,-3.3007 -0.7072,-4.7388 -0.4716,-1.4146 -1.1553,-2.6406 -2.0747,-3.7015 -0.9195,-1.0374 -2.0276,-1.8389 -3.3243,-2.4048 -1.3203,-0.5658 -2.8291,-0.8487 -4.5266,-0.8487 z m 59.86,-5.4461 c 3.0885,0 5.8705,0.5186 8.346,1.5324 2.4755,1.0138 4.5738,2.4755 6.3184,4.3616 1.7211,1.8861 3.0649,4.173 3.9844,6.8371 0.9195,2.6877 1.391,5.6819 1.391,8.9826 0,3.3242 -0.4715,6.2948 -1.391,8.9589 -0.9195,2.6642 -2.2633,4.9511 -3.9844,6.8371 -1.7446,1.8861 -3.8429,3.3243 -6.3184,4.3381 -2.4755,1.0138 -5.2575,1.5324 -8.346,1.5324 -3.0885,0 -5.8705,-0.5186 -8.346,-1.5324 -2.4755,-1.0138 -4.5973,-2.452 -6.342,-4.3381 -1.7446,-1.886 -3.0885,-4.1729 -4.0315,-6.8371 -0.9431,-2.6641 -1.4146,-5.6347 -1.4146,-8.9589 0,-3.3007 0.4715,-6.2949 1.4146,-8.9826 0.943,-2.6641 2.2869,-4.951 4.0315,-6.8371 1.7447,-1.8861 3.8665,-3.3478 6.342,-4.3616 2.4755,-1.0138 5.2575,-1.5324 8.346,-1.5324 z m 0,37.6041 c 4.1494,0 7.2615,-1.391 9.3126,-4.1966 2.0512,-2.782 3.0649,-6.6721 3.0649,-11.6702 0,-5.0218 -1.0137,-8.9119 -3.0649,-11.7174 -2.0511,-2.8056 -5.1632,-4.1966 -9.3126,-4.1966 -2.0983,0 -3.9372,0.3536 -5.4932,1.0845 -1.5561,0.7309 -2.8528,1.7682 -3.8901,3.1121 -1.0374,1.3438 -1.8154,3.0177 -2.3105,4.9981 -0.5187,2.004 -0.778,4.2437 -0.778,6.7193 0,2.499 0.2593,4.7388 0.778,6.6956 0.4951,1.9804 1.2731,3.6307 2.3105,4.9746 1.0373,1.3438 2.334,2.3812 3.8901,3.112 1.556,0.7309 3.3949,1.0846 5.4932,1.0846 z m 30.8377,5.1867 v -35.8123 l -4.6445,-0.5422 c -0.5894,-0.1179 -1.0845,-0.3301 -1.4381,-0.6366 -0.3773,-0.3065 -0.5659,-0.7308 -0.5659,-1.2731 v -3.0413 h 6.6485 v -4.0551 c 0,-2.4284 0.3537,-4.5738 1.0374,-6.4364 0.6837,-1.8625 1.6503,-3.4421 2.8999,-4.7388 1.2495,-1.2967 2.7819,-2.2633 4.5502,-2.947 1.7682,-0.6601 3.7722,-0.9902 5.9883,-0.9902 1.8861,0 3.6308,0.2829 5.234,0.8487 l -0.1651,3.7015 c -0.024,0.5423 -0.2593,0.8723 -0.7073,0.9902 -0.4479,0.1179 -1.0609,0.165 -1.8625,0.165 h -1.2967 c -1.2731,0 -2.4283,0.1651 -3.4657,0.4951 -1.0373,0.3301 -1.9332,0.8724 -2.6877,1.6268 -0.7544,0.7544 -1.3202,1.7446 -1.721,2.947 -0.4008,1.226 -0.613,2.7349 -0.613,4.5267 v 3.8665 h 12.1889 v 5.3754 h -11.9296 v 35.9301 z m 42.4372,14.2636 v -56.3943 h 4.4088 c 1.0609,0 1.7211,0.5187 1.9804,1.5325 l 0.6366,4.9981 c 1.7917,-2.1926 3.8429,-3.9372 6.1769,-5.2811 2.3105,-1.3438 4.9746,-2.0039 7.9924,-2.0039 2.4283,0 4.6209,0.4715 6.5777,1.391 1.9569,0.943 3.6308,2.3104 5.0218,4.1258 1.391,1.8154 2.4519,4.0787 3.2063,6.7664 0.7545,2.6877 1.1317,5.7762 1.1317,9.2654 0,3.1121 -0.4244,6.012 -1.2495,8.6761 -0.8252,2.6641 -2.0276,4.9746 -3.5836,6.9314 -1.5561,1.9568 -3.4657,3.5129 -5.7055,4.6209 -2.2633,1.1317 -4.8095,1.6975 -7.6387,1.6975 -2.6169,0 -4.8331,-0.4243 -6.672,-1.2967 -1.8626,-0.8723 -3.4893,-2.0747 -4.8803,-3.6543 v 18.6252 z m 18.7431,-51.1604 c -2.4047,0 -4.503,0.5659 -6.3184,1.6739 -1.8154,1.1081 -3.4893,2.6877 -5.0217,4.6917 v 20.3934 c 1.3438,1.8154 2.8291,3.1121 4.4559,3.843 1.6267,0.7544 3.4185,1.1316 5.4225,1.1316 3.9137,0 6.9314,-1.391 9.0297,-4.1965 2.0983,-2.8056 3.1592,-6.79 3.1592,-11.9768 0,-2.7584 -0.2357,-5.116 -0.7308,-7.0728 -0.4951,-1.9569 -1.1789,-3.5836 -2.0983,-4.8332 -0.9195,-1.2495 -2.0276,-2.1925 -3.3478,-2.782 -1.3439,-0.5894 -2.8528,-0.8723 -4.5503,-0.8723 z m 35.388,-24.3542 v 61.251 h -7.403 v -61.251 z m 43.9932,61.251 h -3.2771 c -0.7309,0 -1.2967,-0.1179 -1.7446,-0.33 -0.448,-0.2122 -0.7545,-0.6838 -0.8959,-1.4146 l -0.8252,-3.9137 c -1.1081,1.0138 -2.169,1.9097 -3.2299,2.6877 -1.061,0.778 -2.1691,1.4382 -3.3243,1.9804 -1.1788,0.5423 -2.4283,0.9666 -3.725,1.2496 -1.3203,0.2593 -2.782,0.4008 -4.4088,0.4008 -1.6267,0 -3.1592,-0.2358 -4.5738,-0.6838 -1.4381,-0.4479 -2.6641,-1.1316 -3.725,-2.0511 -1.061,-0.9195 -1.8861,-2.0747 -2.5227,-3.4893 -0.6365,-1.391 -0.943,-3.0413 -0.943,-4.951 0,-1.6739 0.4715,-3.2771 1.391,-4.8095 0.9194,-1.5325 2.3812,-2.8999 4.4323,-4.1023 2.0276,-1.2024 4.6917,-2.169 7.9923,-2.947 3.3007,-0.7545 7.3323,-1.1788 12.0946,-1.2967 v -3.2771 c 0,-3.2771 -0.7072,-5.7526 -2.0982,-7.4265 -1.391,-1.6739 -3.4657,-2.5227 -6.2242,-2.5227 -1.7918,0 -3.3006,0.2358 -4.5266,0.6837 -1.2495,0.4716 -2.3105,0.9902 -3.2064,1.5561 -0.9194,0.5658 -1.6975,1.0845 -2.334,1.5324 -0.6601,0.448 -1.2967,0.6837 -1.9333,0.6837 -0.4951,0 -0.943,-0.1414 -1.3202,-0.4008 -0.3772,-0.2593 -0.6837,-0.5658 -0.8959,-0.9666 l -1.3203,-2.3812 c 2.3341,-2.2397 4.8331,-3.9136 7.5208,-5.0217 2.6877,-1.1081 5.6583,-1.6739 8.9354,-1.6739 2.3576,0 4.4559,0.3772 6.2949,1.1552 1.8153,0.778 3.3714,1.8625 4.6209,3.2535 1.2495,1.391 2.1926,3.0885 2.8292,5.0453 0.6365,1.9569 0.943,4.1259 0.943,6.4835 z m -19.2146,-4.5266 c 1.2967,0 2.4991,-0.1415 3.5836,-0.4008 1.0609,-0.2593 2.0747,-0.6366 3.0413,-1.1317 0.9666,-0.4951 1.8861,-1.0845 2.7584,-1.7682 0.8723,-0.6837 1.7211,-1.4853 2.5462,-2.3576 v -8.7704 c -3.4185,0.1179 -6.2948,0.3773 -8.676,0.8016 -2.3812,0.4244 -4.338,0.9902 -5.8233,1.6739 -1.5089,0.7073 -2.5934,1.5325 -3.2771,2.4755 -0.6837,0.9431 -1.0138,2.004 -1.0138,3.1593 0,1.108 0.1886,2.0511 0.5422,2.8527 0.3537,0.8016 0.8488,1.4617 1.4618,1.9804 0.5894,0.5187 1.3202,0.8959 2.1454,1.1316 0.8252,0.2358 1.7447,0.3537 2.7113,0.3537 z m 54.5789,-30.6491 c -0.3536,0.613 -0.8723,0.9195 -1.556,0.9195 -0.4008,0 -0.8723,-0.1651 -1.391,-0.4716 -0.5422,-0.3065 -1.1788,-0.6365 -1.9332,-1.0137 -0.778,-0.3773 -1.6739,-0.7309 -2.7349,-1.0374 -1.0609,-0.3065 -2.3104,-0.4715 -3.7486,-0.4715 -1.2495,0 -2.3576,0.165 -3.3478,0.4715 -1.0138,0.3065 -1.8625,0.7544 -2.5698,1.2967 -0.7073,0.5658 -1.2496,1.2024 -1.6268,1.9332 -0.3772,0.7309 -0.5658,1.5325 -0.5658,2.4048 0,1.0845 0.3065,1.9804 0.943,2.6877 0.613,0.7309 1.4382,1.3439 2.4755,1.8625 1.0138,0.5423 2.1926,1.0138 3.4893,1.4146 1.2967,0.4008 2.6406,0.8488 4.008,1.2967 1.3674,0.448 2.7112,0.9666 4.0079,1.5089 1.2967,0.5422 2.4755,1.2495 3.5129,2.0747 1.0138,0.8252 1.8389,1.8625 2.4755,3.0649 0.613,1.2024 0.9195,2.6641 0.9195,4.338 0,1.9569 -0.3537,3.7486 -1.0374,5.399 -0.6837,1.6503 -1.721,3.0649 -3.0649,4.2673 -1.3674,1.2024 -3.0413,2.169 -4.9982,2.8527 -1.9568,0.6837 -4.2437,1.0374 -6.8135,1.0374 -2.947,0 -5.6111,-0.4716 -7.9923,-1.4382 -2.3812,-0.943 -4.4088,-2.169 -6.0827,-3.6779 l 1.7446,-2.8291 c 0.2358,-0.3537 0.4951,-0.6366 0.8016,-0.8252 0.3065,-0.1886 0.7073,-0.2829 1.2024,-0.2829 0.4951,0 1.0374,0.1886 1.5796,0.5658 0.5423,0.4008 1.226,0.8252 2.0276,1.2967 0.778,0.4715 1.7446,0.8959 2.8763,1.2731 1.1081,0.4008 2.5226,0.5894 4.1966,0.5894 1.4381,0 2.7112,-0.1886 3.7957,-0.5658 1.0845,-0.3536 1.9804,-0.8723 2.7113,-1.5089 0.7073,-0.6365 1.2495,-1.3674 1.6032,-2.1926 0.3536,-0.8251 0.5187,-1.721 0.5187,-2.6641 0,-1.1552 -0.3065,-2.1218 -0.9431,-2.8999 -0.6365,-0.7544 -1.4617,-1.4145 -2.4755,-1.9568 -1.0138,-0.5422 -2.1926,-1.0138 -3.5129,-1.4146 -1.3202,-0.4008 -2.6641,-0.8251 -4.0315,-1.2731 -1.391,-0.4479 -2.7348,-0.943 -4.0315,-1.5089 -1.3203,-0.5658 -2.4991,-1.2731 -3.5129,-2.1454 -1.0373,-0.8487 -1.8625,-1.9097 -2.4755,-3.1828 -0.6365,-1.2495 -0.943,-2.782 -0.943,-4.5738 0,-1.6267 0.33,-3.1828 1.0137,-4.6681 0.6602,-1.4853 1.6268,-2.782 2.8999,-3.89 1.2731,-1.1081 2.8292,-2.004 4.6917,-2.6877 1.8625,-0.6602 3.9844,-0.9902 6.3656,-0.9902 2.7584,0 5.2575,0.4243 7.4736,1.2967 2.1926,0.8723 4.1023,2.0747 5.7055,3.6071 z m 24.7315,35.8359 c -3.3242,0 -5.894,-0.9195 -7.6623,-2.782 -1.7918,-1.8626 -2.6877,-4.5267 -2.6877,-8.016 v -25.7923 h -5.0688 c -0.448,0 -0.8252,-0.1415 -1.1317,-0.4008 -0.3065,-0.2594 -0.4479,-0.6838 -0.4479,-1.226 v -2.947 l 6.8842,-0.8724 1.7211,-13.014 c 0.047,-0.4244 0.2357,-0.7781 0.5422,-1.0374 0.3065,-0.2593 0.6837,-0.3772 1.1553,-0.3772 h 3.7486 v 14.4994 h 12.0474 v 5.3754 h -12.0474 v 25.2737 c 0,1.7682 0.4244,3.0885 1.2967,3.9608 0.8487,0.8723 1.9568,1.2967 3.3242,1.2967 0.778,0 1.4382,-0.1179 2.004,-0.3301 0.5658,-0.2122 1.0609,-0.4244 1.4853,-0.6837 0.4008,-0.2593 0.7544,-0.4715 1.0609,-0.6837 0.283,-0.2122 0.5423,-0.3065 0.7545,-0.3065 0.4008,0 0.7308,0.2358 1.0373,0.7073 l 2.169,3.5364 c -1.2731,1.2024 -2.8055,2.1219 -4.5973,2.8056 -1.8154,0.6837 -3.6779,1.0138 -5.5876,1.0138 z m 26.4997,-42.7909 v 42.1307 h -7.4029 v -42.1307 z m 1.6503,-13.2263 c 0,0.7309 -0.1414,1.391 -0.4243,2.004 -0.3065,0.6366 -0.6838,1.1788 -1.1553,1.6739 -0.4951,0.4951 -1.0609,0.8723 -1.6975,1.1553 -0.6365,0.2829 -1.3202,0.4243 -2.0275,0.4243 -0.7309,0 -1.391,-0.1414 -2.0276,-0.4243 -0.6365,-0.283 -1.1788,-0.6602 -1.6503,-1.1553 -0.4951,-0.4951 -0.8723,-1.0373 -1.1552,-1.6739 -0.283,-0.613 -0.4244,-1.2731 -0.4244,-2.004 0,-0.7308 0.1414,-1.4145 0.4244,-2.0747 0.2829,-0.6365 0.6601,-1.2024 1.1552,-1.6975 0.4715,-0.4715 1.0138,-0.8487 1.6503,-1.1316 0.6366,-0.2829 1.2967,-0.4244 2.0276,-0.4244 0.7073,0 1.391,0.1415 2.0275,0.4244 0.6366,0.2829 1.2024,0.6601 1.6975,1.1316 0.4715,0.4951 0.8488,1.061 1.1553,1.6975 0.2829,0.6602 0.4243,1.3439 0.4243,2.0747 z m 40.1268,20.7235 c -0.2122,0.3065 -0.448,0.5187 -0.6602,0.6838 -0.2121,0.165 -0.5422,0.2593 -0.943,0.2593 -0.4244,0 -0.8723,-0.165 -1.3674,-0.5187 -0.4951,-0.3536 -1.1081,-0.7308 -1.839,-1.1552 -0.7544,-0.4008 -1.6739,-0.778 -2.7348,-1.1317 -1.0609,-0.3536 -2.3812,-0.5187 -3.9137,-0.5187 -2.0511,0 -3.8665,0.3773 -5.4461,1.1081 -1.5796,0.7309 -2.9234,1.7918 -3.9844,3.1828 -1.0609,1.391 -1.8625,3.0649 -2.4047,5.0218 -0.5423,1.9568 -0.8252,4.1729 -0.8252,6.6249 0,2.5462 0.2829,4.8095 0.8723,6.7899 0.5894,1.9804 1.391,3.6308 2.4519,4.9746 1.061,1.3439 2.3341,2.3812 3.8665,3.0885 1.5089,0.7073 3.2064,1.0609 5.0925,1.0609 1.7918,0 3.2771,-0.2122 4.4323,-0.6365 1.1553,-0.4244 2.1455,-0.8959 2.9235,-1.4382 0.778,-0.5187 1.4146,-0.9902 1.9097,-1.4381 0.4951,-0.4244 1.0137,-0.6366 1.5088,-0.6366 0.6366,0 1.0846,0.2358 1.391,0.7073 l 2.0983,2.7113 c -1.8389,2.2397 -4.1258,3.8665 -6.8607,4.9038 -2.7584,1.061 -5.6583,1.5796 -8.6996,1.5796 -2.6405,0 -5.0925,-0.4951 -7.3322,-1.4617 -2.2633,-0.9666 -4.2201,-2.3812 -5.8941,-4.2201 -1.6739,-1.839 -2.9706,-4.1023 -3.9136,-6.8136 -0.9666,-2.6877 -1.4382,-5.7526 -1.4382,-9.1711 0,-3.1357 0.448,-6.0355 1.3203,-8.6997 0.8723,-2.6641 2.1455,-4.951 3.8194,-6.8842 1.6739,-1.9097 3.725,-3.4186 6.2005,-4.5031 2.4755,-1.0845 5.3047,-1.6267 8.4875,-1.6267 2.947,0 5.5404,0.4715 7.8273,1.4381 2.2633,0.9666 4.2673,2.3105 6.0119,4.0551 z m 61.0644,0 c -0.2122,0.3065 -0.448,0.5187 -0.6602,0.6838 -0.2121,0.165 -0.5422,0.2593 -0.943,0.2593 -0.4244,0 -0.8723,-0.165 -1.3674,-0.5187 -0.4951,-0.3536 -1.1081,-0.7308 -1.839,-1.1552 -0.7544,-0.4008 -1.6739,-0.778 -2.7348,-1.1317 -1.0609,-0.3536 -2.3812,-0.5187 -3.9137,-0.5187 -2.0511,0 -3.8665,0.3773 -5.4461,1.1081 -1.5796,0.7309 -2.9234,1.7918 -3.9844,3.1828 -1.0609,1.391 -1.8625,3.0649 -2.4047,5.0218 -0.5423,1.9568 -0.8252,4.1729 -0.8252,6.6249 0,2.5462 0.2829,4.8095 0.8723,6.7899 0.5894,1.9804 1.391,3.6308 2.4519,4.9746 1.061,1.3439 2.3341,2.3812 3.8665,3.0885 1.5089,0.7073 3.2064,1.0609 5.0925,1.0609 1.7918,0 3.2771,-0.2122 4.4323,-0.6365 1.1553,-0.4244 2.1455,-0.8959 2.9235,-1.4382 0.778,-0.5187 1.4146,-0.9902 1.9097,-1.4381 0.4951,-0.4244 1.0137,-0.6366 1.5088,-0.6366 0.6366,0 1.0846,0.2358 1.391,0.7073 l 2.0983,2.7113 c -1.8389,2.2397 -4.1258,3.8665 -6.8607,4.9038 -2.7584,1.061 -5.6583,1.5796 -8.6996,1.5796 -2.6405,0 -5.0925,-0.4951 -7.3322,-1.4617 -2.2633,-0.9666 -4.2201,-2.3812 -5.8941,-4.2201 -1.6739,-1.839 -2.9706,-4.1023 -3.9136,-6.8136 -0.9666,-2.6877 -1.4382,-5.7526 -1.4382,-9.1711 0,-3.1357 0.448,-6.0355 1.3203,-8.6997 0.8723,-2.6641 2.1455,-4.951 3.8194,-6.8842 1.6739,-1.9097 3.725,-3.4186 6.2005,-4.5031 2.4755,-1.0845 5.3047,-1.6267 8.4875,-1.6267 2.947,0 5.5404,0.4715 7.8273,1.4381 2.2633,0.9666 4.2673,2.3105 6.0119,4.0551 z m 27.1598,-8.1573 c 3.0885,0 5.8705,0.5186 8.346,1.5324 2.4755,1.0138 4.5738,2.4755 6.3184,4.3616 1.7211,1.8861 3.0649,4.173 3.9844,6.8371 0.9195,2.6877 1.391,5.6819 1.391,8.9826 0,3.3242 -0.4715,6.2948 -1.391,8.9589 -0.9195,2.6642 -2.2633,4.9511 -3.9844,6.8371 -1.7446,1.8861 -3.8429,3.3243 -6.3184,4.3381 -2.4755,1.0138 -5.2575,1.5324 -8.346,1.5324 -3.0885,0 -5.8705,-0.5186 -8.346,-1.5324 -2.4755,-1.0138 -4.5974,-2.452 -6.342,-4.3381 -1.7446,-1.886 -3.0885,-4.1729 -4.0315,-6.8371 -0.9431,-2.6641 -1.4146,-5.6347 -1.4146,-8.9589 0,-3.3007 0.4715,-6.2949 1.4146,-8.9826 0.943,-2.6641 2.2869,-4.951 4.0315,-6.8371 1.7446,-1.8861 3.8665,-3.3478 6.342,-4.3616 2.4755,-1.0138 5.2575,-1.5324 8.346,-1.5324 z m 0,37.6041 c 4.1494,0 7.2615,-1.391 9.3126,-4.1966 2.0511,-2.782 3.0649,-6.6721 3.0649,-11.6702 0,-5.0218 -1.0138,-8.9119 -3.0649,-11.7174 -2.0511,-2.8056 -5.1632,-4.1966 -9.3126,-4.1966 -2.0983,0 -3.9372,0.3536 -5.4933,1.0845 -1.556,0.7309 -2.8527,1.7682 -3.89,3.1121 -1.0374,1.3438 -1.8154,3.0177 -2.3105,4.9981 -0.5187,2.004 -0.778,4.2437 -0.778,6.7193 0,2.499 0.2593,4.7388 0.778,6.6956 0.4951,1.9804 1.2731,3.6307 2.3105,4.9746 1.0373,1.3438 2.334,2.3812 3.89,3.112 1.5561,0.7309 3.395,1.0846 5.4933,1.0846 z m 29.1874,5.1867 v -42.1307 h 4.4087 c 1.0609,0 1.7211,0.5187 1.9804,1.5325 l 0.5894,4.5737 c 1.8154,-2.0039 3.8665,-3.6543 6.1298,-4.9038 2.2634,-1.2496 4.8803,-1.8625 7.8509,-1.8625 2.2869,0 4.3145,0.3772 6.0827,1.1316 1.7682,0.778 3.2299,1.8625 4.4088,3.2535 1.1788,1.391 2.0747,3.0885 2.6876,5.0454 0.5894,1.9804 0.8959,4.1494 0.8959,6.5306 v 26.8297 h -7.3793 v -26.8297 c 0,-3.1828 -0.7309,-5.6583 -2.1926,-7.4265 -1.4617,-1.7683 -3.6779,-2.6406 -6.6721,-2.6406 -2.1926,0 -4.2437,0.5187 -6.1298,1.5796 -1.9097,1.061 -3.6543,2.4755 -5.2575,4.2909 v 31.0263 z m 58.9877,0.6602 c -3.3243,0 -5.8941,-0.9195 -7.6623,-2.782 -1.7918,-1.8626 -2.6877,-4.5267 -2.6877,-8.016 v -25.7923 h -5.0689 c -0.4479,0 -0.8251,-0.1415 -1.1316,-0.4008 -0.3065,-0.2594 -0.448,-0.6838 -0.448,-1.226 v -2.947 l 6.8843,-0.8724 1.7211,-13.014 c 0.047,-0.4244 0.2357,-0.7781 0.5422,-1.0374 0.3065,-0.2593 0.6837,-0.3772 1.1552,-0.3772 h 3.7487 v 14.4994 h 12.0474 v 5.3754 h -12.0474 v 25.2737 c 0,1.7682 0.4243,3.0885 1.2967,3.9608 0.8487,0.8723 1.9568,1.2967 3.3242,1.2967 0.778,0 1.4382,-0.1179 2.004,-0.3301 0.5658,-0.2122 1.0609,-0.4244 1.4853,-0.6837 0.4008,-0.2593 0.7544,-0.4715 1.0609,-0.6837 0.2829,-0.2122 0.5423,-0.3065 0.7545,-0.3065 0.4008,0 0.7308,0.2358 1.0373,0.7073 l 2.169,3.5364 c -1.2731,1.2024 -2.8055,2.1219 -4.5973,2.8056 -1.8154,0.6837 -3.6779,1.0138 -5.5876,1.0138 z m 49.2036,-0.6602 h -3.2771 c -0.7309,0 -1.2967,-0.1179 -1.7447,-0.33 -0.4479,-0.2122 -0.7544,-0.6838 -0.8959,-1.4146 l -0.8251,-3.9137 c -1.1081,1.0138 -2.169,1.9097 -3.23,2.6877 -1.0609,0.778 -2.169,1.4382 -3.3242,1.9804 -1.1788,0.5423 -2.4284,0.9666 -3.7251,1.2496 -1.3202,0.2593 -2.782,0.4008 -4.4087,0.4008 -1.6268,0 -3.1592,-0.2358 -4.5738,-0.6838 -1.4381,-0.4479 -2.6641,-1.1316 -3.725,-2.0511 -1.061,-0.9195 -1.8861,-2.0747 -2.5227,-3.4893 -0.6366,-1.391 -0.943,-3.0413 -0.943,-4.951 0,-1.6739 0.4715,-3.2771 1.3909,-4.8095 0.9195,-1.5325 2.3812,-2.8999 4.4324,-4.1023 2.0275,-1.2024 4.6916,-2.169 7.9923,-2.947 3.3007,-0.7545 7.3322,-1.1788 12.0946,-1.2967 v -3.2771 c 0,-3.2771 -0.7073,-5.7526 -2.0983,-7.4265 -1.391,-1.6739 -3.4657,-2.5227 -6.2241,-2.5227 -1.7918,0 -3.3007,0.2358 -4.5266,0.6837 -1.2496,0.4716 -2.3105,0.9902 -3.2064,1.5561 -0.9195,0.5658 -1.6975,1.0845 -2.334,1.5324 -0.6602,0.448 -1.2967,0.6837 -1.9333,0.6837 -0.4951,0 -0.943,-0.1414 -1.3203,-0.4008 -0.3772,-0.2593 -0.6837,-0.5658 -0.8958,-0.9666 l -1.3203,-2.3812 c 2.334,-2.2397 4.8331,-3.9136 7.5208,-5.0217 2.6877,-1.1081 5.6583,-1.6739 8.9354,-1.6739 2.3576,0 4.4559,0.3772 6.2948,1.1552 1.8154,0.778 3.3714,1.8625 4.621,3.2535 1.2495,1.391 2.1926,3.0885 2.8291,5.0453 0.6366,1.9569 0.9431,4.1259 0.9431,6.4835 z m -19.2146,-4.5266 c 1.2966,0 2.499,-0.1415 3.5835,-0.4008 1.061,-0.2593 2.0747,-0.6366 3.0414,-1.1317 0.9666,-0.4951 1.8861,-1.0845 2.7584,-1.7682 0.8723,-0.6837 1.7211,-1.4853 2.5462,-2.3576 v -8.7704 c -3.4185,0.1179 -6.2948,0.3773 -8.676,0.8016 -2.3812,0.4244 -4.3381,0.9902 -5.8234,1.6739 -1.5088,0.7073 -2.5933,1.5325 -3.2771,2.4755 -0.6837,0.9431 -1.0137,2.004 -1.0137,3.1593 0,1.108 0.1886,2.0511 0.5422,2.8527 0.3537,0.8016 0.8488,1.4617 1.4618,1.9804 0.5894,0.5187 1.3202,0.8959 2.1454,1.1316 0.8252,0.2358 1.7446,0.3537 2.7113,0.3537 z m 38.6885,-37.6041 v 42.1307 h -7.4029 v -42.1307 z m 1.6504,-13.2263 c 0,0.7309 -0.1415,1.391 -0.4244,2.004 -0.3065,0.6366 -0.6837,1.1788 -1.1552,1.6739 -0.4951,0.4951 -1.061,0.8723 -1.6975,1.1553 -0.6366,0.2829 -1.3203,0.4243 -2.0276,0.4243 -0.7308,0 -1.391,-0.1414 -2.0275,-0.4243 -0.6366,-0.283 -1.1788,-0.6602 -1.6504,-1.1553 -0.4951,-0.4951 -0.8723,-1.0373 -1.1552,-1.6739 -0.2829,-0.613 -0.4244,-1.2731 -0.4244,-2.004 0,-0.7308 0.1415,-1.4145 0.4244,-2.0747 0.2829,-0.6365 0.6601,-1.2024 1.1552,-1.6975 0.4716,-0.4715 1.0138,-0.8487 1.6504,-1.1316 0.6365,-0.2829 1.2967,-0.4244 2.0275,-0.4244 0.7073,0 1.391,0.1415 2.0276,0.4244 0.6365,0.2829 1.2024,0.6601 1.6975,1.1316 0.4715,0.4951 0.8487,1.061 1.1552,1.6975 0.2829,0.6602 0.4244,1.3439 0.4244,2.0747 z m 11.4109,55.357 v -42.1307 h 4.4087 c 1.061,0 1.7211,0.5187 1.9804,1.5325 l 0.5894,4.5737 c 1.8154,-2.0039 3.8665,-3.6543 6.1299,-4.9038 2.2633,-1.2496 4.8802,-1.8625 7.8508,-1.8625 2.2869,0 4.3145,0.3772 6.0827,1.1316 1.7682,0.778 3.23,1.8625 4.4088,3.2535 1.1788,1.391 2.0747,3.0885 2.6877,5.0454 0.5894,1.9804 0.8959,4.1494 0.8959,6.5306 v 26.8297 h -7.3794 v -26.8297 c 0,-3.1828 -0.7309,-5.6583 -2.1926,-7.4265 -1.4617,-1.7683 -3.6779,-2.6406 -6.6721,-2.6406 -2.1926,0 -4.2437,0.5187 -6.1298,1.5796 -1.9097,1.061 -3.6543,2.4755 -5.2575,4.2909 v 31.0263 z m 62.9014,-42.7908 c 2.5226,0 4.8331,0.4243 6.9785,1.2731 2.1455,0.8487 3.9844,2.0747 5.5404,3.6543 1.5561,1.5796 2.782,3.56 3.6544,5.8941 0.8723,2.334 1.2966,5.0217 1.2966,8.0159 0,1.1552 -0.1178,1.9332 -0.3772,2.3104 -0.2593,0.4008 -0.7308,0.5895 -1.4145,0.5895 h -28.0322 c 0.071,2.6641 0.4244,4.9981 1.0845,6.9549 0.6602,1.9569 1.5796,3.6072 2.7349,4.9275 1.1552,1.3202 2.5462,2.3104 4.173,2.947 1.6031,0.6601 3.3949,0.9902 5.3989,0.9902 1.8625,0 3.4657,-0.2122 4.8096,-0.6601 1.3438,-0.4244 2.499,-0.8959 3.4657,-1.391 0.9666,-0.4951 1.7918,-0.9431 2.4519,-1.391 0.6366,-0.4244 1.2024,-0.6366 1.6739,-0.6366 0.5894,0 1.0609,0.2358 1.4146,0.7073 l 2.0747,2.7113 c -0.9195,1.108 -2.004,2.0511 -3.2771,2.8763 -1.2967,0.8251 -2.6641,1.4853 -4.1023,2.0039 -1.4617,0.5423 -2.9706,0.9431 -4.503,1.2024 -1.5561,0.2594 -3.1121,0.4008 -4.6445,0.4008 -2.8999,0 -5.5876,-0.4951 -8.0395,-1.4853 -2.452,-0.9902 -4.5738,-2.4283 -6.342,-4.338 -1.7918,-1.8861 -3.1828,-4.2437 -4.173,-7.0493 -1.0138,-2.8056 -1.5089,-6.0119 -1.5089,-9.6427 0,-2.947 0.4479,-5.6818 1.3438,-8.2281 0.8959,-2.5462 2.1926,-4.7624 3.8901,-6.6249 1.6739,-1.8625 3.7486,-3.3478 6.2006,-4.4087 2.4283,-1.061 5.1867,-1.6032 8.2281,-1.6032 z m 0.165,5.4461 c -3.5836,0 -6.3892,1.0373 -8.4403,3.0885 -2.0511,2.0747 -3.3242,4.951 -3.8193,8.6053 h 22.8925 c 0,-1.7211 -0.2358,-3.3007 -0.7073,-4.7388 -0.4715,-1.4146 -1.1552,-2.6406 -2.0747,-3.7015 -0.9195,-1.0374 -2.0276,-1.8389 -3.3243,-2.4048 -1.3202,-0.5658 -2.8291,-0.8487 -4.5266,-0.8487 z m 26.759,37.3447 v -42.1307 h 4.2202 c 0.8251,0 1.3674,0.1415 1.6739,0.448 0.3065,0.3064 0.4951,0.8487 0.613,1.6031 l 0.5186,6.5542 c 1.4382,-2.947 3.2064,-5.2339 5.3283,-6.8842 2.1218,-1.6504 4.6209,-2.4755 7.4736,-2.4755 1.1553,0 2.2162,0.1414 3.1592,0.4008 0.9431,0.2593 1.8154,0.6365 2.617,1.108 l -0.943,5.5405 c -0.2122,0.6837 -0.6366,1.0373 -1.2967,1.0373 -0.4008,0 -0.9902,-0.1414 -1.7918,-0.4008 -0.8016,-0.2593 -1.9333,-0.4008 -3.3714,-0.4008 -2.5698,0 -4.7389,0.7545 -6.4599,2.2398 -1.7211,1.5088 -3.1828,3.6779 -4.338,6.5306 v 26.8297 z m 57.6439,-35.1757 c -0.3536,0.613 -0.8723,0.9195 -1.556,0.9195 -0.4008,0 -0.8724,-0.1651 -1.391,-0.4716 -0.5423,-0.3065 -1.1788,-0.6365 -1.9333,-1.0137 -0.778,-0.3773 -1.6739,-0.7309 -2.7348,-1.0374 -1.061,-0.3065 -2.3105,-0.4715 -3.7486,-0.4715 -1.2496,0 -2.3577,0.165 -3.3479,0.4715 -1.0137,0.3065 -1.8625,0.7544 -2.5698,1.2967 -0.7073,0.5658 -1.2495,1.2024 -1.6267,1.9332 -0.3773,0.7309 -0.5659,1.5325 -0.5659,2.4048 0,1.0845 0.3065,1.9804 0.9431,2.6877 0.613,0.7309 1.4381,1.3439 2.4755,1.8625 1.0138,0.5423 2.1926,1.0138 3.4893,1.4146 1.2967,0.4008 2.6405,0.8488 4.0079,1.2967 1.3674,0.448 2.7113,0.9666 4.008,1.5089 1.2967,0.5422 2.4755,1.2495 3.5128,2.0747 1.0138,0.8252 1.839,1.8625 2.4755,3.0649 0.613,1.2024 0.9195,2.6641 0.9195,4.338 0,1.9569 -0.3536,3.7486 -1.0373,5.399 -0.6837,1.6503 -1.7211,3.0649 -3.0649,4.2673 -1.3675,1.2024 -3.0414,2.169 -4.9982,2.8527 -1.9568,0.6837 -4.2437,1.0374 -6.8135,1.0374 -2.9471,0 -5.6112,-0.4716 -7.9924,-1.4382 -2.3812,-0.943 -4.4087,-2.169 -6.0826,-3.6779 l 1.7446,-2.8291 c 0.2358,-0.3537 0.4951,-0.6366 0.8016,-0.8252 0.3065,-0.1886 0.7073,-0.2829 1.2024,-0.2829 0.4951,0 1.0373,0.1886 1.5796,0.5658 0.5422,0.4008 1.2259,0.8252 2.0275,1.2967 0.7781,0.4715 1.7447,0.8959 2.8763,1.2731 1.1081,0.4008 2.5227,0.5894 4.1966,0.5894 1.4382,0 2.7113,-0.1886 3.7958,-0.5658 1.0845,-0.3536 1.9804,-0.8723 2.7112,-1.5089 0.7073,-0.6365 1.2496,-1.3674 1.6032,-2.1926 0.3537,-0.8251 0.5187,-1.721 0.5187,-2.6641 0,-1.1552 -0.3065,-2.1218 -0.943,-2.8999 -0.6366,-0.7544 -1.4618,-1.4145 -2.4755,-1.9568 -1.0138,-0.5422 -2.1926,-1.0138 -3.5129,-1.4146 -1.3203,-0.4008 -2.6641,-0.8251 -4.0315,-1.2731 -1.391,-0.4479 -2.7349,-0.943 -4.0316,-1.5089 -1.3202,-0.5658 -2.4991,-1.2731 -3.5128,-2.1454 -1.0374,-0.8487 -1.8626,-1.9097 -2.4755,-3.1828 -0.6366,-1.2495 -0.9431,-2.782 -0.9431,-4.5738 0,-1.6267 0.3301,-3.1828 1.0138,-4.6681 0.6601,-1.4853 1.6268,-2.782 2.8999,-3.89 1.2731,-1.1081 2.8291,-2.004 4.6916,-2.6877 1.8626,-0.6602 3.9844,-0.9902 6.3656,-0.9902 2.7584,0 5.2575,0.4243 7.4737,1.2967 2.1926,0.8723 4.1022,2.0747 5.7054,3.6071 z"
       style="fill:#1b1918;fill-rule:evenodd"
       id="path6" />
    <path
       d="m 2078.7653,516.899 h 9.6486 c 2.4126,0 4.2693,-0.5816 5.5522,-1.7604 1.2888,-1.1651 1.9333,-2.7034 1.9333,-4.5954 0,-4.3105 -2.5718,-6.4736 -7.7212,-6.4736 h -9.4129 z m -9.6466,22.3522 v -43.6789 h 19.4052 c 5.289,0 9.4679,1.2613 12.5387,3.7918 3.0629,2.5364 4.5954,6.0788 4.5954,10.6113 0,6.8135 -3.1396,11.3461 -9.4187,13.6192 l 10.6662,15.6566 h -11.234 l -9.3028,-14.0691 h -7.6034 v 14.0691 z m -9.01,5.2752 c 6.9157,7.0689 15.5171,10.6112 25.8022,10.6112 10.293,0 18.9356,-3.5619 25.9221,-10.6662 7.0001,-7.1122 10.5012,-15.7686 10.5012,-25.985 0,-10.1338 -3.4578,-18.7411 -10.3834,-25.8179 -6.9156,-7.0631 -15.517,-10.6034 -25.81,-10.6034 -10.2852,0 -18.9278,3.562 -25.93,10.6722 -7.0001,7.1121 -10.4855,15.7685 -10.4855,25.9711 0,10.1398 3.4579,18.7412 10.3834,25.818 z m 54.9621,3.0079 c -8.012,8.0886 -17.7372,12.13 -29.1599,12.13 -11.4207,0 -21.1047,-4.008 -29.04,-12.02 -7.9432,-8.012 -11.9139,-17.6586 -11.9139,-28.9359 0,-11.2635 4.006,-20.9533 12.0259,-29.04 8.0179,-8.0965 17.7352,-12.1378 29.1579,-12.1378 11.4227,0 21.1046,4.006 29.0479,12.0199 7.9353,8.0258 11.9138,17.6665 11.9138,28.9359 0,11.2695 -4.0138,20.9514 -12.0317,29.0479 z"
       style="fill:#1b1918;fill-rule:evenodd"
       id="path8" />
  </g>
  <path
     d="M 0,0 V 1728 H 3600 V 0 Z"
     style="fill:none;stroke:#1b1918;stroke-width:0.5669;stroke-linecap:round;stroke-linejoin:round;stroke-dasharray:none"
     id="path11" />
</svg>
