<svg version="1.1" id="Layer_1" xmlns="http://www.w3.org/2000/svg" xmlns:xlink="http://www.w3.org/1999/xlink" x="0px" y="0px"
	 width="100%" viewBox="0 0 340 280" enable-background="new 0 0 340 280" xml:space="preserve">
<path fill="#FEFFFF" opacity="1.000000" stroke="none" 
	d="
M207.000000,281.000000 
	C138.000031,281.000000 69.500069,281.000000 1.000073,281.000000 
	C1.000049,187.666748 1.000049,94.333488 1.000025,1.000174 
	C114.333199,1.000116 227.666397,1.000116 340.999695,1.000058 
	C340.999817,94.333160 340.999817,187.666321 340.999908,280.999756 
	C296.500000,281.000000 252.000000,281.000000 207.000000,281.000000 
M196.572815,262.062836 
	C234.915039,240.023911 255.487915,206.812851 256.661255,162.719925 
	C257.658264,125.252281 256.885010,87.737419 256.873291,50.243458 
	C256.872894,48.976662 256.636505,47.709942 256.480011,46.141747 
	C249.183182,46.141747 242.188141,45.848949 235.239777,46.290668 
	C232.584366,46.459476 229.389755,47.656631 227.535629,49.491444 
	C200.293060,76.450203 173.236954,103.597359 146.129578,130.692780 
	C144.777405,132.044342 143.361679,133.332352 143.020111,133.657043 
	C125.771194,116.409515 109.020653,99.660309 92.513458,83.154434 
	C93.326057,83.154434 94.946648,83.154427 96.567238,83.154427 
	C121.729881,83.154427 146.893234,83.238304 172.054016,83.022026 
	C174.514801,83.000877 177.536591,81.732605 179.316895,80.022110 
	C189.648880,70.095268 199.693237,59.868809 209.813980,49.722836 
	C210.758118,48.776337 211.556503,47.684452 212.641983,46.400513 
	C150.467926,46.400513 89.028160,46.400513 27.063482,46.400513 
	C27.063482,53.599846 27.236868,60.557182 26.989834,67.499565 
	C26.867571,70.935532 27.903250,73.340965 30.360569,75.787498 
	C66.378273,111.647018 102.291260,147.611710 138.235046,183.545471 
	C139.386810,184.696884 140.601288,185.785553 142.465958,187.544342 
	C168.222733,161.784119 193.810028,136.193375 219.639526,110.360413 
	C219.639526,129.294769 219.852615,147.895721 219.506607,166.486252 
	C219.405884,171.898468 218.222717,177.434982 216.660446,182.652451 
	C205.261078,220.723129 169.779297,243.278793 129.993378,237.984848 
	C96.861153,233.576248 67.821098,203.982666 65.013618,170.870880 
	C63.876842,157.463715 64.453903,143.916748 63.959370,130.444092 
	C63.878750,128.247803 62.812355,125.590118 61.294891,124.024513 
	C51.090256,113.496246 40.647232,103.198822 30.258200,92.849937 
	C29.434223,92.029144 28.434490,91.384796 27.068872,90.304344 
	C27.068872,114.597298 26.764084,138.096558 27.222549,161.580902 
	C27.399874,170.664246 28.417082,179.930786 30.566278,188.744537 
	C48.230167,261.183258 130.263519,297.603394 196.572815,262.062836 
M332.958588,29.822096 
	C332.749084,28.849220 332.565125,27.870016 332.326080,26.904461 
	C330.006592,17.536802 324.173553,11.403651 314.885712,9.011724 
	C304.923187,6.446052 296.399689,9.440717 289.979675,17.376162 
	C283.790100,25.026718 282.946075,33.713295 286.900635,42.665195 
	C291.544037,53.176430 302.958710,58.521015 314.633209,55.947746 
	C325.598511,53.530792 332.983734,43.384331 332.958588,29.822096 
z"/>
<path fill="#0B91A2" opacity="1.000000" stroke="none" 
	d="
M196.243378,262.231628 
	C130.263519,297.603394 48.230167,261.183258 30.566278,188.744537 
	C28.417082,179.930786 27.399874,170.664246 27.222549,161.580902 
	C26.764084,138.096558 27.068872,114.597298 27.068872,90.304344 
	C28.434490,91.384796 29.434223,92.029144 30.258200,92.849937 
	C40.647232,103.198822 51.090256,113.496246 61.294891,124.024513 
	C62.812355,125.590118 63.878750,128.247803 63.959370,130.444092 
	C64.453903,143.916748 63.876842,157.463715 65.013618,170.870880 
	C67.821098,203.982666 96.861153,233.576248 129.993378,237.984848 
	C169.779297,243.278793 205.261078,220.723129 216.660446,182.652451 
	C218.222717,177.434982 219.405884,171.898468 219.506607,166.486252 
	C219.852615,147.895721 219.639526,129.294769 219.639526,110.360413 
	C193.810028,136.193375 168.222733,161.784119 142.465958,187.544342 
	C140.601288,185.785553 139.386810,184.696884 138.235046,183.545471 
	C102.291260,147.611710 66.378273,111.647018 30.360569,75.787498 
	C27.903250,73.340965 26.867571,70.935532 26.989834,67.499565 
	C27.236868,60.557182 27.063482,53.599846 27.063482,46.400513 
	C89.028160,46.400513 150.467926,46.400513 212.641983,46.400513 
	C211.556503,47.684452 210.758118,48.776337 209.813980,49.722836 
	C199.693237,59.868809 189.648880,70.095268 179.316895,80.022110 
	C177.536591,81.732605 174.514801,83.000877 172.054016,83.022026 
	C146.893234,83.238304 121.729881,83.154427 96.567238,83.154427 
	C94.946648,83.154427 93.326057,83.154434 92.513458,83.154434 
	C109.020653,99.660309 125.771194,116.409515 143.020111,133.657043 
	C143.361679,133.332352 144.777405,132.044342 146.129578,130.692780 
	C173.236954,103.597359 200.293060,76.450203 227.535629,49.491444 
	C229.389755,47.656631 232.584366,46.459476 235.239777,46.290668 
	C242.188141,45.848949 249.183182,46.141747 256.480011,46.141747 
	C256.636505,47.709942 256.872894,48.976662 256.873291,50.243458 
	C256.885010,87.737419 257.658264,125.252281 256.661255,162.719925 
	C255.487915,206.812851 234.915039,240.023911 196.243378,262.231628 
z"/>
<path fill="#2B2C2C" opacity="1.000000" stroke="none" 
	d="
M332.980865,30.265837 
	C332.983734,43.384331 325.598511,53.530792 314.633209,55.947746 
	C302.958710,58.521015 291.544037,53.176430 286.900635,42.665195 
	C282.946075,33.713295 283.790100,25.026718 289.979675,17.376162 
	C296.399689,9.440717 304.923187,6.446052 314.885712,9.011724 
	C324.173553,11.403651 330.006592,17.536802 332.326080,26.904461 
	C332.565125,27.870016 332.749084,28.849220 332.980865,30.265837 
M304.356384,11.442856 
	C294.563629,14.189059 288.878632,20.461374 287.765808,29.747402 
	C286.688721,38.735439 290.665649,47.130688 298.379456,51.194920 
	C306.470398,55.457855 314.470154,54.859455 321.845001,49.415642 
	C329.244965,43.953266 332.037628,33.548294 328.779755,24.677038 
	C325.306610,15.219524 316.823242,10.392450 304.356384,11.442856 
z"/>
<path fill="#F9F9F9" opacity="1.000000" stroke="none" 
	d="
M304.764587,11.343728 
	C316.823242,10.392450 325.306610,15.219524 328.779755,24.677038 
	C332.037628,33.548294 329.244965,43.953266 321.845001,49.415642 
	C314.470154,54.859455 306.470398,55.457855 298.379456,51.194920 
	C290.665649,47.130688 286.688721,38.735439 287.765808,29.747402 
	C288.878632,20.461374 294.563629,14.189059 304.764587,11.343728 
M318.124115,33.284695 
	C322.290314,26.646643 320.239563,20.245579 313.186066,19.242273 
	C308.546509,18.582335 303.737000,19.117516 299.215881,19.117516 
	C299.215881,27.889019 299.215881,36.135292 299.215881,44.697231 
	C301.117920,44.563675 302.685242,44.453621 304.395264,44.333546 
	C304.561981,41.520996 304.706207,39.088287 304.847534,36.703827 
	C308.996887,36.302761 309.212280,36.178722 311.761902,40.606228 
	C313.775055,44.102142 316.137054,45.663708 320.600616,43.982613 
	C318.679352,41.057400 316.896484,38.342915 315.080566,35.578106 
	C315.998199,34.938881 316.801270,34.379471 318.124115,33.284695 
z"/>
<path fill="#222323" opacity="1.000000" stroke="none" 
	d="
M317.864227,33.552380 
	C316.801270,34.379471 315.998199,34.938881 315.080566,35.578106 
	C316.896484,38.342915 318.679352,41.057400 320.600616,43.982613 
	C316.137054,45.663708 313.775055,44.102142 311.761902,40.606228 
	C309.212280,36.178722 308.996887,36.302761 304.847534,36.703827 
	C304.706207,39.088287 304.561981,41.520996 304.395264,44.333546 
	C302.685242,44.453621 301.117920,44.563675 299.215881,44.697231 
	C299.215881,36.135292 299.215881,27.889019 299.215881,19.117516 
	C303.737000,19.117516 308.546509,18.582335 313.186066,19.242273 
	C320.239563,20.245579 322.290314,26.646643 317.864227,33.552380 
M307.362000,31.310392 
	C308.348175,31.301569 309.577301,31.663462 310.271210,31.208687 
	C311.837006,30.182501 313.138184,28.752489 314.546997,27.486778 
	C313.051575,26.310328 311.711853,24.723564 310.014435,24.079363 
	C308.489594,23.500664 306.571838,23.957424 303.616333,23.957424 
	C304.773468,27.009676 305.585388,29.151348 307.362000,31.310392 
z"/>
<path fill="#FAFAFA" opacity="1.000000" stroke="none" 
	d="
M306.879639,31.301706 
	C305.585388,29.151348 304.773468,27.009676 303.616333,23.957424 
	C306.571838,23.957424 308.489594,23.500664 310.014435,24.079363 
	C311.711853,24.723564 313.051575,26.310328 314.546997,27.486776 
	C313.138184,28.752489 311.837006,30.182501 310.271210,31.208687 
	C309.577301,31.663462 308.348175,31.301569 306.879639,31.301706 
z"/>
</svg>